<?xml version="1.0" encoding="UTF-8"?>
<!DOCTYPE svg PUBLIC "-//W3C//DTD SVG 1.1//EN" "http://www.w3.org/Graphics/SVG/1.1/DTD/svg11.dtd">
<svg xmlns="http://www.w3.org/2000/svg" version="1.1" width="700px" height="107px" style="shape-rendering:geometricPrecision; text-rendering:geometricPrecision; image-rendering:optimizeQuality; fill-rule:evenodd; clip-rule:evenodd" xmlns:xlink="http://www.w3.org/1999/xlink">
<g><path style="opacity:0.653" fill="#fefffe" d="M 74.5,5.5 C 75.8734,5.34332 77.2068,5.50999 78.5,6C 88.9838,15.1314 95.1504,26.6314 97,40.5C 105.977,32.6372 116.31,29.9705 128,32.5C 131.419,46.9125 127.585,59.0792 116.5,69C 125.172,71.155 131.172,76.3217 134.5,84.5C 126.6,94.7042 116.1,100.371 103,101.5C 97.1022,100.867 91.6022,99.0341 86.5,96C 78.8333,89.6667 71.1667,83.3333 63.5,77C 48.2916,69.7983 34.9583,72.465 23.5,85C 29.572,93.548 37.9053,98.048 48.5,98.5C 55.8087,97.2823 62.8087,95.2823 69.5,92.5C 69.67,93.8221 69.3366,94.9887 68.5,96C 49.5812,105.991 33.4145,102.824 20,86.5C 19.3333,85.5 19.3333,84.5 20,83.5C 32.9577,68.5825 48.1244,65.4158 65.5,74C 72.4604,79.2916 79.1271,84.9583 85.5,91C 102.248,100.739 117.248,98.4055 130.5,84C 126.541,77.2652 120.707,73.0985 113,71.5C 108.225,74.0536 103.225,76.0536 98,77.5C 96.7202,77.3865 95.8869,76.7199 95.5,75.5C 105.726,72.4437 114.226,66.7771 121,58.5C 124.902,50.9734 126.402,42.9734 125.5,34.5C 113.547,33.5341 103.714,37.5341 96,46.5C 93.907,55.5177 90.0736,63.6844 84.5,71C 83.0347,71.6013 82.0347,71.1013 81.5,69.5C 97.4842,47.9764 95.8175,27.9764 76.5,9.5C 64.5951,20.5704 61.0951,33.9037 66,49.5C 67.9545,52.7192 69.2879,56.0525 70,59.5C 69,60.8333 68,60.8333 67,59.5C 60.429,42.1343 47.929,34.301 29.5,36C 28.6479,38.4168 27.9812,40.9168 27.5,43.5C 28.4039,49.7117 30.4039,55.545 33.5,61C 33.3699,62.0588 32.8699,62.8921 32,63.5C 24.6456,54.6034 22.6456,44.6034 26,33.5C 38.9506,30.1466 50.2839,33.1466 60,42.5C 59.3027,27.9097 64.136,15.5764 74.5,5.5 Z"/></g>
<g><path style="opacity:0.788" fill="#fefffe" d="M 242.5,23.5 C 248.656,23.4871 251.49,26.4871 251,32.5C 246.155,38.0789 241.822,37.7456 238,31.5C 237.675,27.8166 239.175,25.15 242.5,23.5 Z"/></g>
<g><path style="opacity:0.781" fill="#fefffe" d="M 533.5,25.5 C 544.577,24.5815 554.244,27.7482 562.5,35C 561.5,35.6667 560.5,35.6667 559.5,35C 552.803,30.6599 545.47,28.9933 537.5,30C 532.102,31.4463 530.102,34.9463 531.5,40.5C 551.234,39.8529 570.734,40.5196 590,42.5C 598.109,39.1366 603.609,41.6366 606.5,50C 606.081,53.4247 604.414,56.0914 601.5,58C 605.755,58.7961 609.921,58.6295 614,57.5C 614.499,53.5138 614.666,49.5138 614.5,45.5C 610.855,46.3203 608.522,44.987 607.5,41.5C 619.148,40.5011 630.814,40.1678 642.5,40.5C 642.421,41.9305 642.754,43.2638 643.5,44.5C 640.572,45.4841 637.572,45.8174 634.5,45.5C 634.334,55.1724 634.5,64.8391 635,74.5C 638.815,78.645 642.981,82.4784 647.5,86C 641.582,83.4661 636.082,79.9661 631,75.5C 629.577,65.5797 629.077,55.5797 629.5,45.5C 626.167,45.5 622.833,45.5 619.5,45.5C 619.334,55.1724 619.5,64.8391 620,74.5C 623.815,78.645 627.981,82.4784 632.5,86C 626.582,83.4661 621.082,79.9661 616,75.5C 614.855,70.9174 614.189,66.2508 614,61.5C 609.064,62.3525 604.231,61.6859 599.5,59.5C 595.623,61.2103 592.956,64.0436 591.5,68C 592.466,71.9672 594.966,74.1339 599,74.5C 599.925,73.9535 600.758,73.2868 601.5,72.5C 599.566,66.9333 601.232,65.4333 606.5,68C 607.687,69.0195 608.687,70.1861 609.5,71.5C 608.36,73.0778 607.86,74.7445 608,76.5C 612.786,79.6179 617.286,83.1179 621.5,87C 621.167,87.1667 620.833,87.3333 620.5,87.5C 615.5,84.3333 610.5,81.1667 605.5,78C 598.732,78.1925 593.232,75.6925 589,70.5C 587.578,67.9699 587.245,65.3033 588,62.5C 589.873,60.2911 592.04,58.4578 594.5,57C 589.477,54.7849 587.144,50.9516 587.5,45.5C 585.5,45.5 583.5,45.5 581.5,45.5C 581.334,54.8393 581.5,64.1726 582,73.5C 582.333,74.5 582.667,75.5 583,76.5C 586.566,79.6993 590.4,82.5326 594.5,85C 595.696,85.6543 595.696,86.1543 594.5,86.5C 588.252,83.403 582.752,79.403 578,74.5C 577.5,64.8391 577.334,55.1724 577.5,45.5C 572.821,45.3342 568.155,45.5008 563.5,46C 569.548,56.6321 567.215,65.1321 556.5,71.5C 562.664,76.8258 568.997,81.9925 575.5,87C 575,87.5 574.5,88 574,88.5C 565.069,81.2864 555.569,74.953 545.5,69.5C 543.401,64.9765 544.734,63.1432 549.5,64C 550.725,65.563 552.225,66.7297 554,67.5C 556.767,66.4018 558.933,64.5685 560.5,62C 556.103,60.3834 552.269,57.8834 549,54.5C 547.491,51.6715 547.325,48.8381 548.5,46C 543.177,45.5006 537.844,45.334 532.5,45.5C 532.334,54.8393 532.5,64.1726 533,73.5C 533.273,75.3289 534.107,76.8289 535.5,78C 539.344,80.422 543.01,83.0887 546.5,86C 546,86.1667 545.5,86.3333 545,86.5C 539.064,83.2208 533.731,79.2208 529,74.5C 528.5,64.8391 528.334,55.1724 528.5,45.5C 524.518,46.4222 522.184,44.9222 521.5,41C 523.473,40.5045 525.473,40.3379 527.5,40.5C 525.389,33.7367 527.389,28.7367 533.5,25.5 Z M 556.5,44.5 C 561.902,47.0923 563.902,51.4256 562.5,57.5C 555.836,57.9998 552.669,54.9998 553,48.5C 553.69,46.6498 554.856,45.3164 556.5,44.5 Z M 595.5,44.5 C 601.399,44.3584 603.232,47.0251 601,52.5C 596.766,56.6593 593.599,55.8259 591.5,50C 592.007,47.4547 593.341,45.6214 595.5,44.5 Z"/></g>
<g><path style="opacity:0.885" fill="#fefffe" d="M 190.5,26.5 C 193.833,26.5 197.167,26.5 200.5,26.5C 200.334,32.8421 200.5,39.1754 201,45.5C 207.036,40.2775 213.869,39.1109 221.5,42C 225.302,44.0875 227.802,47.2541 229,51.5C 229.5,61.828 229.666,72.1613 229.5,82.5C 225.833,82.5 222.167,82.5 218.5,82.5C 218.666,73.1607 218.5,63.8274 218,54.5C 212.575,47.8618 207.242,47.8618 202,54.5C 200.614,63.7662 200.114,73.0995 200.5,82.5C 196.833,82.5 193.167,82.5 189.5,82.5C 189.18,63.757 189.514,45.0903 190.5,26.5 Z"/></g>
<g><path style="opacity:0.882" fill="#fefffe" d="M 260.5,26.5 C 263.833,26.5 267.167,26.5 270.5,26.5C 270.334,36.8387 270.5,47.172 271,57.5C 274.976,52.0234 279.142,46.6901 283.5,41.5C 288.167,40.1667 292.833,40.1667 297.5,41.5C 291.833,48.1667 286.167,54.8333 280.5,61.5C 286.167,68.1667 291.833,74.8333 297.5,81.5C 292.869,82.6616 288.202,82.8283 283.5,82C 279.713,76.544 275.546,71.3774 271,66.5C 270.501,71.8229 270.334,77.1563 270.5,82.5C 266.833,82.5 263.167,82.5 259.5,82.5C 259.18,63.757 259.514,45.0903 260.5,26.5 Z"/></g>
<g><path style="opacity:0.882" fill="#fefffe" d="M 344.5,26.5 C 347.833,26.5 351.167,26.5 354.5,26.5C 354.334,32.5092 354.501,38.5092 355,44.5C 364.6,38.3705 373.266,39.3705 381,47.5C 381.973,49.3921 382.64,51.3921 383,53.5C 383.5,63.1609 383.666,72.8276 383.5,82.5C 379.833,82.5 376.167,82.5 372.5,82.5C 372.666,73.8269 372.5,65.1603 372,56.5C 369.53,49.8519 365.03,48.0185 358.5,51C 356.513,52.3189 355.346,54.1523 355,56.5C 354.5,65.1603 354.334,73.8269 354.5,82.5C 350.833,82.5 347.167,82.5 343.5,82.5C 343.18,63.757 343.514,45.0903 344.5,26.5 Z"/></g>
<g><path style="opacity:0.865" fill="#fefffe" d="M 158.5,40.5 C 164.434,39.8887 170.1,40.722 175.5,43C 179.227,45.9545 181.227,49.7879 181.5,54.5C 178.15,54.665 174.817,54.4983 171.5,54C 169.074,49.7115 165.407,48.3782 160.5,50C 157.936,52.276 158.27,54.276 161.5,56C 166.637,57.2678 171.637,58.9344 176.5,61C 181.275,64.6551 182.775,69.4884 181,75.5C 177.346,80.9114 172.18,83.5781 165.5,83.5C 155.127,83.4432 149.127,78.4432 147.5,68.5C 151.167,68.5 154.833,68.5 158.5,68.5C 160.137,74.148 163.804,75.8147 169.5,73.5C 172.264,70.4903 171.597,68.3236 167.5,67C 163.12,65.8217 158.787,64.4883 154.5,63C 148.398,58.8949 146.898,53.3949 150,46.5C 152.322,43.6047 155.155,41.6047 158.5,40.5 Z"/></g>
<g><path style="opacity:0.834" fill="#fefffe" d="M 239.5,40.5 C 243.106,40.2108 246.606,40.5442 250,41.5C 250.5,55.1626 250.667,68.8293 250.5,82.5C 246.5,82.5 242.5,82.5 238.5,82.5C 238.185,68.4213 238.518,54.4213 239.5,40.5 Z"/></g>
<g><path style="opacity:0.859" fill="#fefffe" d="M 311.5,40.5 C 317.732,39.9386 323.732,40.772 329.5,43C 338.816,52.2661 337.149,56.0994 324.5,54.5C 324.276,50.4518 322.109,48.7851 318,49.5C 313.567,48.5987 311.9,50.2654 313,54.5C 318.002,56.7117 323.169,58.545 328.5,60C 335.414,63.7697 337.247,69.2697 334,76.5C 324.42,85.4844 314.42,85.8177 304,77.5C 298.492,68.8214 300.992,65.9881 311.5,69C 314.181,74.335 318.181,75.6683 323.5,73C 324.833,71.3333 324.833,69.6667 323.5,68C 318.56,66.1809 313.56,64.5143 308.5,63C 300.532,57.818 299.532,51.4847 305.5,44C 307.727,43.059 309.727,41.8923 311.5,40.5 Z"/></g>
<g><path style="opacity:0.894" fill="#fefffe" d="M 403.5,40.5 C 410.528,39.3509 416.695,41.0175 422,45.5C 422.494,43.8659 422.66,42.1992 422.5,40.5C 426.167,40.5 429.833,40.5 433.5,40.5C 433.5,54.5 433.5,68.5 433.5,82.5C 429.833,82.5 426.167,82.5 422.5,82.5C 423.187,76.4012 421.854,75.9012 418.5,81C 405.739,85.8717 396.572,82.0383 391,69.5C 387.764,56.3073 391.931,46.6407 403.5,40.5 Z M 411.5,49.5 C 421.375,52.2257 424.542,58.559 421,68.5C 415,75.1667 409,75.1667 403,68.5C 399.235,58.9007 402.068,52.5674 411.5,49.5 Z"/></g>
<g><path style="opacity:0.895" fill="#fefffe" d="M 453.5,40.5 C 457.514,40.3345 461.514,40.5012 465.5,41C 468.102,41.8834 470.269,43.3834 472,45.5C 472.273,43.8988 472.773,42.3988 473.5,41C 476.817,40.5017 480.15,40.335 483.5,40.5C 483.5,54.5 483.5,68.5 483.5,82.5C 479.833,82.5 476.167,82.5 472.5,82.5C 472.657,81.1266 472.49,79.7932 472,78.5C 460.74,86.1021 451.074,84.4354 443,73.5C 437.246,59.2691 440.746,48.2691 453.5,40.5 Z M 461.5,49.5 C 472.062,51.9569 475.229,58.2902 471,68.5C 465.707,74.7694 460.04,75.1027 454,69.5C 450.667,64.1667 450.667,58.8333 454,53.5C 456.255,51.5012 458.755,50.1679 461.5,49.5 Z"/></g>
<g><path style="opacity:0.762" fill="#fefffe" d="M 507.5,40.5 C 508.497,40.4701 509.164,40.9701 509.5,42C 501.5,55.6667 501.5,69.3333 509.5,83C 509.167,83.5 508.833,84 508.5,84.5C 501.516,78.9006 498.182,71.5672 498.5,62.5C 498.388,53.8237 501.388,46.4904 507.5,40.5 Z"/></g>
<g><path style="opacity:0.777" fill="#fefffe" d="M 659.5,40.5 C 665.144,43.4121 668.644,48.0788 670,54.5C 672.921,66.5645 669.755,76.5645 660.5,84.5C 659.417,83.635 659.251,82.635 660,81.5C 664.461,75.9983 666.295,69.665 665.5,62.5C 665.515,58.0979 665.015,53.7646 664,49.5C 662.192,46.5622 660.692,43.5622 659.5,40.5 Z"/></g>
</svg>
